<mxfile host="app.diagrams.net" modified="2022-07-21T02:07:21.693Z" agent="5.0 (X11; Linux x86_64) AppleWebKit/537.36 (KHTML, like Gecko) Chrome/103.0.0.0 Safari/537.36" etag="i7lSVho6FIW-ff0oPLn1" version="20.0.2" type="github" pages="3">
  <diagram id="nW5_6Fhg7z3bkOzrYt55" name="MAIN">
    <mxGraphModel dx="1422" dy="798" grid="1" gridSize="10" guides="1" tooltips="1" connect="1" arrows="1" fold="1" page="1" pageScale="1" pageWidth="1600" pageHeight="900" math="0" shadow="0">
      <root>
        <mxCell id="0" />
        <mxCell id="1" parent="0" />
        <mxCell id="2VfpmqfLJPJ3GplIIqtG-22" value="" style="group" vertex="1" connectable="0" parent="1">
          <mxGeometry x="200" y="40" width="840" height="570" as="geometry" />
        </mxCell>
        <mxCell id="2VfpmqfLJPJ3GplIIqtG-1" value="" style="rounded=0;whiteSpace=wrap;html=1;" vertex="1" parent="2VfpmqfLJPJ3GplIIqtG-22">
          <mxGeometry y="10" width="840" height="560" as="geometry" />
        </mxCell>
        <mxCell id="2VfpmqfLJPJ3GplIIqtG-2" value="&lt;font style=&quot;font-size: 31px;&quot;&gt;My Journal App&lt;/font&gt;" style="rounded=0;whiteSpace=wrap;html=1;fillColor=none;strokeColor=none;" vertex="1" parent="2VfpmqfLJPJ3GplIIqtG-22">
          <mxGeometry x="10" width="820" height="70" as="geometry" />
        </mxCell>
        <mxCell id="2VfpmqfLJPJ3GplIIqtG-3" value="&amp;nbsp; Search..." style="rounded=0;whiteSpace=wrap;html=1;align=left;" vertex="1" parent="2VfpmqfLJPJ3GplIIqtG-22">
          <mxGeometry x="10" y="70" width="670" height="30" as="geometry" />
        </mxCell>
        <mxCell id="2VfpmqfLJPJ3GplIIqtG-4" value="&amp;nbsp; Search" style="rounded=0;whiteSpace=wrap;html=1;align=center;fillColor=#dae8fc;strokeColor=#6c8ebf;" vertex="1" parent="2VfpmqfLJPJ3GplIIqtG-22">
          <mxGeometry x="690" y="70" width="140" height="30" as="geometry" />
        </mxCell>
        <mxCell id="2VfpmqfLJPJ3GplIIqtG-10" value="" style="group;fillColor=#66B2FF;strokeColor=#6c8ebf;" vertex="1" connectable="0" parent="2VfpmqfLJPJ3GplIIqtG-22">
          <mxGeometry x="10" y="150" width="820" height="110" as="geometry" />
        </mxCell>
        <mxCell id="2VfpmqfLJPJ3GplIIqtG-5" value="&amp;nbsp; Search..." style="rounded=0;whiteSpace=wrap;html=1;align=left;fillColor=#f5f5f5;fontColor=#333333;strokeColor=#666666;" vertex="1" parent="2VfpmqfLJPJ3GplIIqtG-10">
          <mxGeometry width="820" height="110" as="geometry" />
        </mxCell>
        <mxCell id="2VfpmqfLJPJ3GplIIqtG-6" value="." style="rounded=0;whiteSpace=wrap;html=1;align=left;fillColor=#fff2cc;strokeColor=#d6b656;" vertex="1" parent="2VfpmqfLJPJ3GplIIqtG-10">
          <mxGeometry x="790" y="10" width="20" height="20" as="geometry" />
        </mxCell>
        <mxCell id="2VfpmqfLJPJ3GplIIqtG-9" value="&amp;nbsp; Tags:&amp;nbsp;" style="rounded=0;whiteSpace=wrap;html=1;align=left;" vertex="1" parent="2VfpmqfLJPJ3GplIIqtG-10">
          <mxGeometry x="10" y="80" width="800" height="20" as="geometry" />
        </mxCell>
        <mxCell id="2VfpmqfLJPJ3GplIIqtG-11" value="" style="group;fillColor=#66B2FF;strokeColor=#6c8ebf;" vertex="1" connectable="0" parent="2VfpmqfLJPJ3GplIIqtG-22">
          <mxGeometry x="10" y="270" width="820" height="110" as="geometry" />
        </mxCell>
        <mxCell id="2VfpmqfLJPJ3GplIIqtG-12" value="&amp;nbsp; Search..." style="rounded=0;whiteSpace=wrap;html=1;align=left;fillColor=#f5f5f5;fontColor=#333333;strokeColor=#666666;" vertex="1" parent="2VfpmqfLJPJ3GplIIqtG-11">
          <mxGeometry width="820" height="110" as="geometry" />
        </mxCell>
        <mxCell id="2VfpmqfLJPJ3GplIIqtG-13" value="." style="rounded=0;whiteSpace=wrap;html=1;align=left;fillColor=#fff2cc;strokeColor=#d6b656;" vertex="1" parent="2VfpmqfLJPJ3GplIIqtG-11">
          <mxGeometry x="790" y="10" width="20" height="20" as="geometry" />
        </mxCell>
        <mxCell id="2VfpmqfLJPJ3GplIIqtG-15" value="&amp;nbsp; Tags:&amp;nbsp;" style="rounded=0;whiteSpace=wrap;html=1;align=left;" vertex="1" parent="2VfpmqfLJPJ3GplIIqtG-11">
          <mxGeometry x="10" y="80" width="800" height="20" as="geometry" />
        </mxCell>
        <mxCell id="2VfpmqfLJPJ3GplIIqtG-16" value="" style="group;fillColor=#fff2cc;strokeColor=#d6b656;" vertex="1" connectable="0" parent="2VfpmqfLJPJ3GplIIqtG-22">
          <mxGeometry x="10" y="390" width="820" height="110" as="geometry" />
        </mxCell>
        <mxCell id="2VfpmqfLJPJ3GplIIqtG-17" value="&amp;nbsp; Search..." style="rounded=0;whiteSpace=wrap;html=1;align=left;fillColor=#f5f5f5;fontColor=#333333;strokeColor=#666666;" vertex="1" parent="2VfpmqfLJPJ3GplIIqtG-16">
          <mxGeometry width="820" height="110" as="geometry" />
        </mxCell>
        <mxCell id="2VfpmqfLJPJ3GplIIqtG-18" value="." style="rounded=0;whiteSpace=wrap;html=1;align=left;fillColor=#fff2cc;strokeColor=#d6b656;" vertex="1" parent="2VfpmqfLJPJ3GplIIqtG-16">
          <mxGeometry x="790" y="10" width="20" height="20" as="geometry" />
        </mxCell>
        <mxCell id="2VfpmqfLJPJ3GplIIqtG-20" value="&amp;nbsp; Tags:&amp;nbsp;" style="rounded=0;whiteSpace=wrap;html=1;align=left;" vertex="1" parent="2VfpmqfLJPJ3GplIIqtG-16">
          <mxGeometry x="10" y="80" width="800" height="20" as="geometry" />
        </mxCell>
        <mxCell id="2VfpmqfLJPJ3GplIIqtG-21" value="Add Entry" style="rounded=0;whiteSpace=wrap;html=1;align=center;fillColor=#d5e8d4;strokeColor=#82b366;" vertex="1" parent="2VfpmqfLJPJ3GplIIqtG-22">
          <mxGeometry x="10" y="110" width="820" height="30" as="geometry" />
        </mxCell>
        <mxCell id="2VfpmqfLJPJ3GplIIqtG-49" value="MAIN" style="rounded=0;whiteSpace=wrap;html=1;fontSize=12;fillColor=none;" vertex="1" parent="1">
          <mxGeometry x="40" y="50" width="120" height="60" as="geometry" />
        </mxCell>
      </root>
    </mxGraphModel>
  </diagram>
  <diagram id="8p9lroerUZ4jK_jcP6re" name="ENTRY">
    <mxGraphModel dx="1422" dy="798" grid="1" gridSize="10" guides="1" tooltips="1" connect="1" arrows="1" fold="1" page="1" pageScale="1" pageWidth="1600" pageHeight="900" math="0" shadow="0">
      <root>
        <mxCell id="0" />
        <mxCell id="1" parent="0" />
        <mxCell id="vZNZJqQyUt8C2URFWLCY-1" value="" style="rounded=0;whiteSpace=wrap;html=1;" vertex="1" parent="1">
          <mxGeometry x="200" y="40" width="840" height="560" as="geometry" />
        </mxCell>
        <mxCell id="vZNZJqQyUt8C2URFWLCY-2" value="&lt;font style=&quot;font-size: 31px;&quot;&gt;My Journal App&lt;/font&gt;" style="rounded=0;whiteSpace=wrap;html=1;fillColor=none;strokeColor=none;" vertex="1" parent="1">
          <mxGeometry x="210" y="30" width="820" height="70" as="geometry" />
        </mxCell>
        <mxCell id="vZNZJqQyUt8C2URFWLCY-3" value="&amp;nbsp; Search..." style="rounded=0;whiteSpace=wrap;html=1;align=left;" vertex="1" parent="1">
          <mxGeometry x="210" y="100" width="670" height="30" as="geometry" />
        </mxCell>
        <mxCell id="vZNZJqQyUt8C2URFWLCY-4" value="&amp;nbsp; Search..." style="rounded=0;whiteSpace=wrap;html=1;align=center;fillColor=#dae8fc;strokeColor=#6c8ebf;" vertex="1" parent="1">
          <mxGeometry x="890" y="100" width="140" height="30" as="geometry" />
        </mxCell>
        <mxCell id="vZNZJqQyUt8C2URFWLCY-5" value="" style="group;fillColor=#66B2FF;strokeColor=#6c8ebf;container=0;" vertex="1" connectable="0" parent="1">
          <mxGeometry x="210" y="180" width="820" height="110" as="geometry" />
        </mxCell>
        <mxCell id="vZNZJqQyUt8C2URFWLCY-6" value="Add Entry" style="rounded=0;whiteSpace=wrap;html=1;align=center;fillColor=#d5e8d4;strokeColor=#82b366;" vertex="1" parent="1">
          <mxGeometry x="210" y="140" width="820" height="30" as="geometry" />
        </mxCell>
        <mxCell id="vZNZJqQyUt8C2URFWLCY-7" value="" style="rounded=0;whiteSpace=wrap;html=1;align=left;fillColor=#f5f5f5;fontColor=#333333;strokeColor=#666666;" vertex="1" parent="1">
          <mxGeometry x="210" y="180" width="820" height="210" as="geometry" />
        </mxCell>
        <mxCell id="vZNZJqQyUt8C2URFWLCY-8" value="." style="rounded=0;whiteSpace=wrap;html=1;align=left;fillColor=#f8cecc;strokeColor=#b85450;" vertex="1" parent="1">
          <mxGeometry x="1000" y="190" width="20" height="20" as="geometry" />
        </mxCell>
        <mxCell id="vZNZJqQyUt8C2URFWLCY-9" value="." style="rounded=0;whiteSpace=wrap;html=1;align=left;fillColor=#d5e8d4;strokeColor=#82b366;" vertex="1" parent="1">
          <mxGeometry x="970" y="190" width="20" height="20" as="geometry" />
        </mxCell>
        <mxCell id="vZNZJqQyUt8C2URFWLCY-10" value="&amp;nbsp; Title:" style="rounded=0;whiteSpace=wrap;html=1;align=left;" vertex="1" parent="1">
          <mxGeometry x="220" y="190" width="740" height="20" as="geometry" />
        </mxCell>
        <mxCell id="vZNZJqQyUt8C2URFWLCY-11" value="&amp;nbsp; Content:" style="rounded=0;whiteSpace=wrap;html=1;align=left;verticalAlign=top;" vertex="1" parent="1">
          <mxGeometry x="220" y="220" width="800" height="130" as="geometry" />
        </mxCell>
        <mxCell id="vZNZJqQyUt8C2URFWLCY-12" value="&amp;nbsp; Tags:&amp;nbsp;" style="rounded=0;whiteSpace=wrap;html=1;align=left;" vertex="1" parent="1">
          <mxGeometry x="220" y="360" width="800" height="20" as="geometry" />
        </mxCell>
        <mxCell id="vZNZJqQyUt8C2URFWLCY-13" value="Entry" style="rounded=0;whiteSpace=wrap;html=1;fontSize=12;fillColor=none;" vertex="1" parent="1">
          <mxGeometry x="40" y="40" width="120" height="60" as="geometry" />
        </mxCell>
      </root>
    </mxGraphModel>
  </diagram>
  <diagram name="EDIT" id="_gy6nkfVyBTe6r8wjJtK">
    <mxGraphModel dx="1422" dy="798" grid="1" gridSize="10" guides="1" tooltips="1" connect="1" arrows="1" fold="1" page="1" pageScale="1" pageWidth="1600" pageHeight="900" math="0" shadow="0">
      <root>
        <mxCell id="qo_qN-xce1jxUV00tDFy-0" />
        <mxCell id="qo_qN-xce1jxUV00tDFy-1" parent="qo_qN-xce1jxUV00tDFy-0" />
        <mxCell id="qo_qN-xce1jxUV00tDFy-2" value="" style="rounded=0;whiteSpace=wrap;html=1;" vertex="1" parent="qo_qN-xce1jxUV00tDFy-1">
          <mxGeometry x="200" y="40" width="840" height="560" as="geometry" />
        </mxCell>
        <mxCell id="qo_qN-xce1jxUV00tDFy-3" value="&lt;font style=&quot;font-size: 31px;&quot;&gt;My Journal App&lt;/font&gt;" style="rounded=0;whiteSpace=wrap;html=1;fillColor=none;strokeColor=none;" vertex="1" parent="qo_qN-xce1jxUV00tDFy-1">
          <mxGeometry x="210" y="30" width="820" height="70" as="geometry" />
        </mxCell>
        <mxCell id="qo_qN-xce1jxUV00tDFy-4" value="&amp;nbsp; Search..." style="rounded=0;whiteSpace=wrap;html=1;align=left;" vertex="1" parent="qo_qN-xce1jxUV00tDFy-1">
          <mxGeometry x="210" y="100" width="670" height="30" as="geometry" />
        </mxCell>
        <mxCell id="qo_qN-xce1jxUV00tDFy-5" value="&amp;nbsp; Search..." style="rounded=0;whiteSpace=wrap;html=1;align=center;fillColor=#dae8fc;strokeColor=#6c8ebf;" vertex="1" parent="qo_qN-xce1jxUV00tDFy-1">
          <mxGeometry x="890" y="100" width="140" height="30" as="geometry" />
        </mxCell>
        <mxCell id="qo_qN-xce1jxUV00tDFy-6" value="" style="group;fillColor=#66B2FF;strokeColor=#6c8ebf;container=0;" vertex="1" connectable="0" parent="qo_qN-xce1jxUV00tDFy-1">
          <mxGeometry x="210" y="180" width="820" height="110" as="geometry" />
        </mxCell>
        <mxCell id="qo_qN-xce1jxUV00tDFy-7" value="Add Entry" style="rounded=0;whiteSpace=wrap;html=1;align=center;fillColor=#d5e8d4;strokeColor=#82b366;" vertex="1" parent="qo_qN-xce1jxUV00tDFy-1">
          <mxGeometry x="210" y="140" width="820" height="30" as="geometry" />
        </mxCell>
        <mxCell id="qo_qN-xce1jxUV00tDFy-8" value="" style="rounded=0;whiteSpace=wrap;html=1;align=left;fillColor=#f5f5f5;fontColor=#333333;strokeColor=#666666;" vertex="1" parent="qo_qN-xce1jxUV00tDFy-1">
          <mxGeometry x="210" y="180" width="820" height="210" as="geometry" />
        </mxCell>
        <mxCell id="qo_qN-xce1jxUV00tDFy-9" value="." style="rounded=0;whiteSpace=wrap;html=1;align=left;fillColor=#f8cecc;strokeColor=#b85450;" vertex="1" parent="qo_qN-xce1jxUV00tDFy-1">
          <mxGeometry x="1000" y="190" width="20" height="20" as="geometry" />
        </mxCell>
        <mxCell id="qo_qN-xce1jxUV00tDFy-10" value="." style="rounded=0;whiteSpace=wrap;html=1;align=left;fillColor=#d5e8d4;strokeColor=#82b366;" vertex="1" parent="qo_qN-xce1jxUV00tDFy-1">
          <mxGeometry x="970" y="190" width="20" height="20" as="geometry" />
        </mxCell>
        <mxCell id="qo_qN-xce1jxUV00tDFy-11" value="&amp;nbsp; Title:" style="rounded=0;whiteSpace=wrap;html=1;align=left;" vertex="1" parent="qo_qN-xce1jxUV00tDFy-1">
          <mxGeometry x="220" y="190" width="740" height="20" as="geometry" />
        </mxCell>
        <mxCell id="qo_qN-xce1jxUV00tDFy-12" value="&amp;nbsp; Content:" style="rounded=0;whiteSpace=wrap;html=1;align=left;verticalAlign=top;" vertex="1" parent="qo_qN-xce1jxUV00tDFy-1">
          <mxGeometry x="220" y="220" width="800" height="130" as="geometry" />
        </mxCell>
        <mxCell id="qo_qN-xce1jxUV00tDFy-13" value="&amp;nbsp; Tags:&amp;nbsp;" style="rounded=0;whiteSpace=wrap;html=1;align=left;" vertex="1" parent="qo_qN-xce1jxUV00tDFy-1">
          <mxGeometry x="220" y="360" width="800" height="20" as="geometry" />
        </mxCell>
        <mxCell id="qo_qN-xce1jxUV00tDFy-14" value="Entry" style="rounded=0;whiteSpace=wrap;html=1;fontSize=12;fillColor=none;" vertex="1" parent="qo_qN-xce1jxUV00tDFy-1">
          <mxGeometry x="40" y="40" width="120" height="60" as="geometry" />
        </mxCell>
      </root>
    </mxGraphModel>
  </diagram>
</mxfile>
